<?xml version="1.0" encoding="utf-8"?>
<!-- Generator: Adobe Illustrator 18.0.0, SVG Export Plug-In . SVG Version: 6.00 Build 0)  -->
<!DOCTYPE svg PUBLIC "-//W3C//DTD SVG 1.1//EN" "http://www.w3.org/Graphics/SVG/1.1/DTD/svg11.dtd">
<svg version="1.1"
	 id="Layer_1" sodipodi:docname="Blank_Map-Africa.svg" inkscape:version="0.48.1 " xmlns:inkscape="http://www.inkscape.org/namespaces/inkscape" xmlns:sodipodi="http://sodipodi.sourceforge.net/DTD/sodipodi-0.dtd" xmlns:cc="http://creativecommons.org/ns#" xmlns:dc="http://purl.org/dc/elements/1.1/" xmlns:svg="http://www.w3.org/2000/svg" xmlns:rdf="http://www.w3.org/1999/02/22-rdf-syntax-ns#"
	 xmlns="http://www.w3.org/2000/svg" xmlns:xlink="http://www.w3.org/1999/xlink" x="0px" y="0px" viewBox="0 0 1200 1230"
	 enable-background="new 0 0 1200 1230" xml:space="preserve">
<sodipodi:namedview  inkscape:current-layer="Layer_1" inkscape:window-maximized="1" inkscape:window-y="-8" inkscape:window-x="-8" inkscape:window-height="716" inkscape:window-width="1366" inkscape:pageshadow="2" inkscape:pageopacity="0" borderopacity="1" guidetolerance="10" inkscape:zoom="0.40406504" showgrid="false" gridtolerance="10" bordercolor="#666666" objecttolerance="10" pagecolor="#ffffff" inkscape:cy="615" id="namedview123" inkscape:cx="600">
	</sodipodi:namedview>
<g>
	<path fill="#FFFFFF" d="M421,629.8c-0.6,0.6-1,1.5-1,2.4c0,0.9,0.4,1.8,1,2.4c0.6,0.7,1.5,1,2.4,1s1.8-0.4,2.4-1
		c0.6-0.7,1-1.5,1-2.4c0-0.9-0.4-1.8-1-2.4C424.5,628.5,422.3,628.5,421,629.8z"/>
	<path fill="#FFFFFF" d="M435.4,606c-1.6,0-2.8,1.3-2.8,2.8c0,1.6,1.3,2.8,2.8,2.8c1.6,0,2.8-1.3,2.8-2.8
		C438.2,607.2,437,606,435.4,606z"/>
	<path fill="#FFFFFF" d="M1140.9,863.4l-9.6-10.4l-5.8,4.8l-1.4,13.6l-2.7,2.4c-0.2-0.1-0.4-0.2-0.7-0.3c-0.6-0.3-1.1-0.6-1.7-0.6
		c-0.4,0-0.7,0.1-0.9,0.4c-0.5,0.5-0.6,1.6-0.4,3.5l-3.9,4.3c-1.6-2.8-2.8-4-3.9-4c-0.3,0-0.8,0.1-1.2,0.6c-1,1.4-0.9,5-0.1,7.4
		c0,0.3,0,0.6,0,1c0,0.5,0,1.4-0.1,1.7c-0.1-0.1-0.4-0.3-1-0.9l-0.4-0.5l-4.3,6.9l4.4,3.3h-1.8l-5.9,4.3l1.1-6.3l-8.1,8.1l1.5,8
		l-3.3,0.1l0.8-3.4l-0.3-0.2c-0.8-0.5-1.7-0.8-2.5-0.8c-2.2,0-4.2,1.7-6.1,3.4c-1.1,1-2.2,1.9-3.3,2.5l-0.5,0.2l4,6.6l-4,0.4
		l-2.1-6.3l-9.3,1.5l0,0.5c0.2,2.3-2.4,3.2-5.1,4.1l-0.2,0.1l-0.6-4.6l-5.3,5.3l-8.4,0.4l-1.7,7.3l-11.3,16.3l0.3,0.3
		c5.6,4.9,5.8,14.2,6.1,23.2c0.1,4.4,0.3,8.9,1,12.8c-2.6,8.1-7.2,14.7-11.7,21.2c-0.9,1.3-1.9,2.7-2.8,4c-5.8,3.9-9.2,8-10.3,12.8
		l-0.2,0.7c-1,4.3-2.7,11.6-1.5,15.5c0.7,2.3,1.7,3.2,2.5,3.9c0.9,0.8,1.5,1.4,1.6,3.8l1.5,7.6c-5.7,22.1,3.5,27.9,10.1,32.1
		c2.4,1.6,4.6,2.9,5.6,4.7l0.2,0.4l0.4-0.2c0.7-0.3,1.7-0.2,2.7-0.1c0.5,0.1,1,0.1,1.6,0.1c0.7,0,1.3-0.1,1.9-0.4
		c1-0.6,2.1-1.3,3.3-2.1c2.7-1.9,5.9-4,9-4c0.7,0,1.4,0.1,2.1,0.3c1.2,0.4,2.4,0.6,3.7,0.6c2.9,0,5.3-1.1,7.7-2.2l0.5-0.2
		l48.1-102.4c1.2-3.6,2.2-7.3,3.2-10.9c2.1-7.7,4.4-15.7,8-23.5c0.4-0.5,0.8-1.1,1.3-1.6c3.4-4.3,6.8-8.7,4.2-15.3l1-9.7
		c0.2-1.2,0.6-1.9,1.2-1.9c0.4,0,1.2,0.3,2.5,1.5l1.6,6.4l0.5-0.2c1.7-0.6,3.9-1.2,3.7-4.7L1140.9,863.4z"/>
	<path fill="#FFFFFF" d="M1168.8,442.7c-0.1-1.8-0.2-3.6-0.2-5.1l0-0.2l-0.2-0.2c-1.5-1.3-2.2-2.5-2.1-3.5c0.1-0.8,0.7-1.6,1.9-2.3
		l0.3-0.1l0-6.2l-0.5,0c-1.3,0.1-2.5-0.4-3.9-0.9c-1.3-0.5-2.6-1-3.9-1c-1.1,0-2.1,0.3-3,1.1c-4.5,4.2-10.3,6.9-16.3,7.3
		c-3.7,0.3-7,1.5-9.7,2.5c-2.7,1-5,1.8-6.3,1.3l-0.3-0.1l-0.2,0.2c-3.4,2.8-7.2,4.2-11.6,4.2c-2.3,0-4.7-0.4-7.3-1.1l-0.3-0.1
		l-0.2,0.2c-0.7,0.6-1.3,1.2-1.9,1.8c-3.4,3.2-6.6,6.3-13.9,6.3c-2.9,0-6.3-0.5-10.3-1.5l-0.2-0.1l-11.3,8c-2.2,0.6-4.3,0.9-6.2,0.9
		c-8.4,0-12.8-5.5-17.6-11.3c-1.9-2.3-3.8-4.6-6-6.6l-0.4-0.4l-0.2,0.3c-1.9-1.4-3.7-1.6-5.1-1.6c-0.8,0-1.6,0.1-2.4,0.1
		c-0.7,0.1-1.5,0.1-2.2,0.1c0.9-2.5,3.3-3.7,5.9-5c1-0.5,2-1,3-1.6l0.2-0.1l0.1-0.2c2.6-8.2-2.9-13.3-6.3-14.9
		c-1.4-3.4-3.4-6.6-9.6-6.9c-0.5-3.5-2.3-5.7-5.8-7.1c-0.8-2.8-3-3.5-4.9-4c-0.5-0.2-1-0.3-1.5-0.5c-1.6-4.4-5-7.3-8.2-10.1
		c-1-0.8-2-1.7-2.9-2.6l-0.2-0.2l-0.3,0.1c-0.6,0.1-1.2,0.2-1.7,0.2c-3.1,0-4.8-2.3-6.6-4.8l-0.3-0.3l-3.9-0.8l-2.4,1.5
		c-2.3-2-2.9-4.7-3.6-7.6l-0.1-0.3l-4.8-1.3l1,5.6c-0.1,0-0.3,0.1-0.4,0.1c-1.4,0-2.6-4-3.3-6.3l-7.7-11.2
		c-4.3-19.9-8.2-25-11.9-29.9c-0.6-0.8-1.3-1.7-1.9-2.6l-0.2-0.3c-1.3-2.7-3.1-2.9-4.7-3.1c-0.3,0-0.6-0.1-1-0.1
		c-2.6-4.7-6.4-6.3-10-7.8c-1.1-0.5-2.3-0.9-3.4-1.5l-6.6-39.8l0-0.2l-5.2-5.5c0.8-9.8-6.8-14.3-14.1-18.6c-3.6-2.1-7.3-4.3-10-7.1
		l-0.3-0.3l-2.6-13l5.4,0.2l-12.2-10.9l-30.7-50.7l-0.1-6.3l-0.2-0.1c-7.3-4.8-12.6-10.8-15.7-18l-0.3-4.9l-4.6-3.3l1-6.1l13.1,17.5
		c0.5,0.6,0.5,1,0.4,1.6c-0.1,0.6-0.1,1.4,0.5,2.3c3.8,5.2,10.4,10.5,13.6,13.1l0.2,0.2l0.3-0.1c0.4-0.1,0.7-0.2,1.1-0.3
		c1.6-0.3,3.4-0.7,4.2-4.1l3.6-24.1l-16.5-33.7l-0.5,0.3c-6.6,4.6-12,6.7-17.1,6.7c-5.4,0-10.3-2.4-15-7.4l-0.2-0.2l-13.6,1l-0.2,0
		c-0.4,0.2-0.7,0.3-1.1,0.5c-1.4,0.6-2.9,1.3-4.1,1.3c-1,0-1.7-0.5-2.3-1.5l-0.2-0.4l-21.8,12.8l-35.5-7.9c-1.2-0.2-2.3-0.5-3.5-0.8
		c-3.3-0.8-6.8-1.6-9.8-1.6c-0.9,0-1.7,0.1-2.4,0.2l-0.2,0.1c-1.4,0.8-2.7,1.2-4,1.2c-2.1,0-3.9-1.1-5.7-2.2
		c-0.1-6.1-9.8-6.4-16.8-6.7c-0.9,0-1.8-0.1-2.6-0.1c-5.9-0.3-10.1-1-11.8-3.1c-0.8-1-1-2.4-0.5-4.2l0.1-0.4l-0.4-0.2
		c-0.1,0-12.8-4.6-22.7-4.6c-3.7,0-6.6,0.6-8.7,1.9c-0.8,0.5-1.7,1-2.8,1.6c-5.1,2.9-12,6.8-13.5,11.7c-1.2,3.9-0.2,6.6,2.2,10.8
		c1.3,2.2,0.6,6.5-1.6,10.4c-2.7,4.7-6.8,7.6-11,7.6c-3.9,0-7.9-2.4-11.7-7l-0.1-0.1l-0.2,0c-0.2-0.1-20.6-5.7-32-8.2
		c-7-1.5-13.1-6.1-14.9-11.2c-0.9-2.4-0.6-4.6,0.8-6.4l0.2-0.2l-0.1-0.3c-0.1-0.3-0.3-1-31-9.9l-0.1,0l-0.1,0
		c-2.7,0.4-5.3,0.6-7.9,0.6c-9.7,0-16.8-3-19-5.1c0-0.1-0.1-0.3-0.1-0.4c-0.3-1.1-1.5-1.1-2.6-1.2c-1.6-0.1-2.6-0.2-2.9-1.6
		c-0.3-1.3-0.5-2.4-0.7-3.4c-0.9-4.3-1.2-5.8-3.6-6.8c-0.8-0.3-2.2,0.5-4.5,2.2c-1.3,0.9-2.8,2-3.4,2c-1.8-1.1-4-3.4-4.3-5
		c-0.1-0.4,0-0.8,0.2-1c0.7-0.9,2.9-2.6,5.5-4.6c5.8-4.5,13.8-10.7,13.9-14.9c0.2-8.1-2.6-9.6-6.3-11.6c-0.3-0.2-0.7-0.4-1.1-0.6
		c-2.3-1.2-1-5.7-0.5-7.1c0.1-0.3,1.6-1.2,2.7-1.8c3-1.7,6.7-3.8,5.9-6.3c-0.4-1.3-1-2-1.5-2.6c-0.4-0.5-0.8-1-1-1.7
		c-0.1-0.3-0.4-0.5-0.7-0.5c-0.7,0-1.7,0.8-4,2.7c-1,0.8-2.5,2-3.1,2.3c-0.3-0.8-0.5-1.5-0.8-2.1c-0.6-1.7-1.1-3-2-4.5l-0.2-0.2
		h-0.3c-0.6,0-1.6-0.3-2.9-0.6c-2.1-0.5-5-1.3-7.9-1.3c-4.7,0-8.4,1.9-10.9,5.5c0,0-0.1,0-0.1,0c-1.1,0.3-2.2,0.4-3.4,0.4
		c-3.6,0-7.1-1.3-9.9-2.3c-2.9-1-5-1.7-6.1-0.9c-1.7,1.1-3.1,1.7-4.4,1.7c-1.4,0-2.5-0.6-3.6-1.3c-1.3-0.7-2.6-1.5-4.4-1.6
		c-1.8-0.1-4.4,0.6-7.4,1.4c-3.6,1-7.7,2.1-11.7,2.1c-1.6,0-3.1-0.2-4.4-0.6c-1.1-0.3-2.6-0.5-4.5-0.5c-4.8,0-11.4,1-19,2.3
		c-9.3,1.5-19.8,3.1-29,3.1l-0.3,0c-10.5,0-18.3,5.9-18.8,9c-0.1,0.8-1.6,1.2-3.9,1.2c-2.3,0-5.3-0.5-7.5-1.2
		c-0.3-0.1-0.7-0.2-1-0.2c-2.6,0-4.6,3-6.3,5.6c-0.4,0.7-0.9,1.3-1.2,1.8c-2.9,3.8-7.1,4.2-9.7,4.4c-0.5,0-0.9,0.1-1.3,0.1l0-0.3
		l-0.3-0.1c-0.9-0.2-1.9-0.3-2.8-0.4c-3.2-0.5-6.6-0.9-7.8-2.7l-0.1-0.2l-0.2,0c-7-1.2-12.7-1.5-17.6-1c-1,0.1-2,0.2-2.9,0.2
		c-7.1,0-10.7-3-14.6-11.8l-0.1-0.3l-0.3,0c-7.6-0.5-15.2,11.4-21.9,21.9c-1.9,3-3.7,5.8-5.4,8.1c-17.1,4.8-30.4,12.7-39.5,23.6
		l-0.2,0.2l0.1,0.3c1.1,3.8-0.5,5.3-5,8.2c-3,1.9-12.8,17.8-9.5,26.7c0,5.7-4.3,17.3-20.3,25.2l-0.1,0.1c-0.1,0.1-7.2,6.6-18.2,10.2
		c-1.5,0.5-3.7,1-6,1.5c-5.1,1.1-10.9,2.3-13.3,4.5l-0.8,0.8l0.8,0.1c-0.8,1.3-1.6,2.5-2.4,3.8c-4.8,7.6-8.5,13.7-16.3,16.8
		c-9.1,3.6-12.7,14.5-15.3,24.5l-26.8,30.7l0,0.1c-0.8,6.1-4.1,10.8-10.2,14.9l-0.1,0.1c-4.7,6.2-7.9,14.1-8.7,21.7l-0.1,1.3
		l3.4-3.1l3,9.1l0.5-0.1c0,0,0.6-0.2,1.3-0.2c0.7,0,1.1,0.2,1.2,0.6c3.7,9.7,0.1,14-2.8,17.5c-0.8,1-1.5,1.9-2.1,2.8l-0.1,0.3
		l4.5,7.2l-0.7,23.5l-7.2,19.9c-0.4,0.7-0.8,1.3-1.1,1.9c-2.3,3.8-3.8,6.4-3.9,10c-0.1,5.9-4,9.2-8.1,12.8c-2.3,1.9-4.6,4-6.3,6.5
		l-0.2,0.3l1.4,2c3.9,5.7,8,11.5,8.7,18.2l-3.1,8l-0.1,0l-0.1,0.4c0,0,0,0,0,0.1l-0.2,0.6l0.1,0c-0.8,3.7-1.7,8.2-0.9,12.5l0.1,0.4
		l0.2,0l1.1,3.1l0.1,0.1c0.8,0.6,1.8,0.6,2.8,0.7c2,0.1,3.6,0.2,3.4,4.9l0,0.3l0.3,0.1c0.8,0.4,1.5,0.4,2.3,0.4
		c1.5,0,2.8,0.1,3.7,3.2l0.1,0.2L51,431c0.2,0.1,0.4,0.2,0.7,0.2c0,0,0,0,0,0c0.9,0,1.9-0.8,3-1.6c1.1-0.8,2.3-1.8,2.8-1.2
		c0.5,0.6,0.9,2.7,0.1,9.4l0,0.2l5.7,6.2c-0.3,0.9-0.5,1.8,0,2.5c0.4,0.5,1.1,0.8,2.2,0.8c0.1,0.1,0.3,0.1,0.4,0.1c0,0,0,0,0,0
		c0.6,0,1.1-0.6,1.8-1.4c0.3-0.4,0.8-1,1.1-1.1c0.1,0.2,0.3,0.8,0.1,3.1l0,0.5l2.9,0.3c-0.7,4.6,2.3,10,5.4,11c2.4,0.8,4.1,3,5.6,5
		c0.7,0.9,1.3,1.7,2,2.4l5.1,9.3l0.9,14.1l0.2,0.1c0.5,0.4,1,0.8,1.5,1.1c2.2,1.6,4.6,3.2,4.3,7.6l0,0.3l0.3,0.2
		c3.7,1.9,8,4.2,9.4,8.2l0.1,0.2l13.6,6.9l50.1,41.1l14.2,5l0,0.1l0.5,0l0.4,0.1l0-0.1l6.1,0.6l50.8-14.4l18.2,2l19.4,7.1l0.2-0.1
		c5.1-2,9.6-4.4,13.9-6.8c8.5-4.6,17.3-9.4,31.8-11.2c0.9,0.5,1.7,0.8,2.4,0.8c1.9,0,2.7-1.7,3.3-3.2c0.3-0.6,0.5-1.2,0.9-1.6
		l11.4-3.3l0,0.1l15.3-2l0,0.1l24.4-0.1c6.5,2.2,13.8,5.4,18.1,16.7c3.4,12.1,8.9,18,16.8,18c4.1,0,8.7-1.6,14.1-4.9
		c4.8,1.7,9.9,2.5,15.7,2.5c0.5,0,1,0,1.6,0l0.4,0l1.1-5.9l2.5,0.1c0.3,3.5,2.8,4.1,5.1,4.6c0.6,0.1,1.2,0.3,1.7,0.5
		c1.2,4.2,3.2,8.1,8.7,8.8l0.1,0l4-1.2l1.2,1.8l-2.4,2.9l6.5,8.4l-2.5,18.9l0,0l-7.9,15.2l4.7,3.1l0,0l-2.5,11.3l7.5,3.9
		c0.1,0.3,0,0.5-0.4,0.8c0,0-0.1,0.1-0.1,0.1l-8.7-1.9l-1.9,10.7l-6.7,6.5l7.3,18.7l29.7,30.8l0,0l16.8,21.7l-0.1,0.1l0.5,0.5
		c1.9,1.7,1.9,3.7,2,5.8l0,0.2c-0.5,2.1,0.6,3.9,1.6,5.6c0.2,0.3,0.4,0.6,0.5,0.9l-0.2,0.1l1.7,6.8l0.1,0c1.7,4.8,4.1,9,6.3,13.1
		c4.7,8.4,9.5,17.1,9.3,31.6l-3.6,3.5l0.7,2.5c2.7,9.1,5.4,18.5,11.5,23.1c0.3,1.6-0.1,2.9-0.5,4.3c-0.2,0.8-0.5,1.5-0.5,2.3
		c-0.7,7.6-4,24.4-5.5,25.5c0,0,0-0.1-0.1-0.1l-0.2-0.4l-0.4,0.1c-0.3,0.1-7.7,1.7-8.4,7.9c-0.1,1.3-1,2-2.1,2.9
		c-1.1,0.9-2.4,2-3.1,3.8c-3.4,9.1-7.2,24-10.4,39.9c-0.1,0.5-0.4,0.7-1.1,0.9c-0.6,0.2-1.5,0.5-1.7,1.6c-0.5,2.7-0.4,4.9-0.2,7.3
		c0.1,1.7,0.2,3.4,0,5.3c-0.1,0-0.2-0.1-0.2-0.1c-0.3-0.1-0.6-0.2-0.9-0.2c-0.3,0-0.9,0.1-1.1,1.1c-0.2,1.2,0.1,3.4,0.5,5.5
		c0.3,1.6,0.5,3.3,0.4,4.1l0,0l0,0.2c0,0,0,0.1,0,0.1l-0.3,0.9l0.4-0.1c0.7,8.6,1.6,18.2,10.2,24.9l35.2,62.7l0.9,28.7l6.3,13.5
		c0.1,1.5,0,3.1-0.1,4.6c-0.2,3.6-0.5,7.3,1.8,11l4.4,24.6l19.2,21.4l26.8,53.9l0.3,12.1c-0.8,1.7-1.9,2.4-3.6,2.4
		c-0.5,0-1.1-0.1-1.9-0.2l-0.3-0.1l-0.2,0.3c-0.7,0.9-1.4,2.1-1.1,3.4c0.1,0.7,0.6,1.4,1.4,1.9c1.1,2,2.2,4.2,3.2,6.4
		c2,4.1,4,8.4,6.8,11.7c2.1,2.5,4.9,4.3,7.5,6.1c1.8,1.2,3.6,2.4,5.3,3.9l0.1,0.1l11,0.9l0.1-0.1c0.7-0.5,1.1-1.1,1.4-1.6
		c0.6-1.1,1.2-2.2,6.5-2.7l15.6-0.1l0.2,0c1.8-0.7,2.4-1.8,2.9-2.8c0.8-1.5,1.6-3,8-3c1.3,0,2.8,0.1,4.4,0.2
		c0.8,0.1,1.4,0.5,2.1,0.8c0.9,0.5,1.8,1,3,1c0.9,0,1.9-0.3,3-0.9c1.2-0.2,2.3-0.3,3.6-0.3c3.8,0,7.7,0.9,11.4,1.7
		c2.2,0.5,4.4,1,6.6,1.3l0.2,0l0.2-0.1c0.4-0.4,0.8-0.7,1.1-1.1c0.8-1,1.6-2,4.9-2c1.8,0,4.1,0.3,7.1,0.9l0.5,0.1l1.3-4.8l14,0.2
		l84.2-78.2c12.6-5.3,16.1-19.9,19.5-34.1c0.2-0.9,0.5-1.9,0.7-2.8l0,0l3.3-11.4l-4.5,1.7c0.1-0.7,0.1-1.4,0.2-2
		c0.2-3,0.4-5.8,3.4-8.7l34.7-13.7l0.1-0.1c3.7-2.7,6.2-6.6,8.6-10.3c0.5-0.7,1-1.5,1.5-2.2l0.4-0.5l-4.2-1.5l7.2-27.2l-3.8-1.3
		l-3-22.8l-0.2-0.1c-3.5-2.1-5.3-5-5.2-8.2c0.1-4,3.1-7.5,5.1-8.7l20.5-17.4l1.8,3.6l8.5-9.4l-1.5-2.3l4.6-0.8l1.5-4.4l25.5-12.5
		l6.5,0.1l0.1-0.1c1.1-0.9,2.2-1.7,3.3-2.6c3.5-2.8,7.1-5.7,12.5-8.1l0.3-0.1l-0.5-3.9l8.4-6.5c0.5-0.5,1-1.1,1.5-1.7
		c1.4-1.7,2.8-3.3,4.6-3.3l0.6,0l0.4-4.9l-1.5-1.7l4.5-6.7l1.3-5l-0.8-3.2l-2.9-4.4l1-17.3l-0.2-0.2c-1.8-1.8-1-2.8,0.2-4.4l0.1-0.1
		l-0.6-19l6.9-11.6l0-0.6c0.2-3,0.4-6.1-0.8-9.2l-0.2-0.6l-0.3,0.2c-2-3.3-5.1-5.3-8.2-7.3c-0.4-0.3-0.8-0.5-1.3-0.8
		c0.2-4.1-1.3-8.5-2.7-12.8l-0.4-1.2l-0.1-0.1c-2-3.1-3.1-5.6-2.1-7.4l0.1-0.2l-4.2-9.2l2.6-0.8l0-0.4c-0.7-6.8-0.7-13.8,3.5-18.2
		l0.2-0.3l-0.2-0.3c-1.2-2.5-3.5-4.8-5.8-7c-3.4-3.4-7-6.8-6.7-11l8.6-24.1l0,0c5.6-6.8,9.7-15.3,13.7-23.6c1.9-4,3.9-8.1,6-11.9
		c6.1-1.6,8.5-6.2,10.1-10.5c4.8-0.3,7.3-3.6,9.5-7l0.2-0.3l0,0l22.1-24.8l37.6-35.5l4.3-0.5l16-15.2l0.6-3
		c9-6.9,19.6-17.9,22.2-23.2c4.2-8.5,9.6-16.4,17.7-25.6l0.1-0.1l14.9-42.9c2.6-2.6,4.8-6,6.9-10.8l0-0.1c0.5-3.3,2.1-4.9,3.8-6.6
		c0.5-0.6,1.1-1.1,1.6-1.8l0.1-0.1l1.7-21.1c0,0,0,0,0,0c0.8,0,1.4-0.3,1.9-0.8C1169.2,450.4,1169,446.7,1168.8,442.7z"/>
</g>
</svg>
